<svg width="40" height="40" fill="none" xmlns="http://www.w3.org/2000/svg"><path d="M20.625 18.75h-1.25V20a1.877 1.877 0 00-1.875 1.875c0 1.034.841 1.875 1.875 1.875h1.25a.626.626 0 010 1.25H18.75v-.625H17.5v1.875h1.875v1.25h1.25v-1.25a1.877 1.877 0 001.875-1.875 1.877 1.877 0 00-1.875-1.875h-1.25a.626.626 0 010-1.25h1.875v.625h1.25V20h-1.875v-1.25z" fill="#BE8D55"/><path d="M28.125 23.316a7.934 7.934 0 00-2.709-5.97l-2.192-1.918 1.957-5.871-3.557-.89-1.691 2.256-1.616-1.616-3.523.881 1.97 5.251-2.18 1.907a7.934 7.934 0 00-2.709 5.97c0 4.375 3.559 7.934 7.934 7.934h.382c4.375 0 7.934-3.559 7.934-7.934zM17.933 10.692l2.134 2.134 2.059-2.744 1.442.36L22.05 15h-4.116l-1.477-3.939 1.477-.37zM20.191 30h-.382a6.691 6.691 0 01-6.684-6.684c0-1.927.832-3.76 2.283-5.03l2.326-2.036h4.531l2.328 2.036a6.683 6.683 0 012.282 5.03A6.691 6.691 0 0120.191 30z" fill="#BE8D55"/><path d="M6.894 18.806A13.14 13.14 0 0118.806 6.894l.569-.052V1.83l-.669.048C9.745 2.51 2.51 9.745 1.876 18.707l-.047.668h5.014l.05-.569zm6.413-11.564a14.36 14.36 0 00-1.076.626l-1.38-2.066c.485-.313.983-.607 1.499-.87l.957 2.31zm.178-2.836a16.91 16.91 0 011.654-.605l.491 2.468c-.406.13-.803.277-1.191.44l-.954-2.303zm-2.276 4.182c-.326.251-.64.516-.943.794L8.51 7.627c.42-.39.858-.76 1.315-1.108l1.383 2.07zm-1.827 1.678c-.278.302-.543.617-.794.942L6.52 9.826c.347-.458.717-.896 1.107-1.316l1.756 1.756zM7.868 12.23c-.224.348-.433.707-.626 1.076l-2.31-.958c.264-.516.557-1.014.871-1.498l2.065 1.38zm-1.16 2.208c-.162.39-.31.785-.439 1.191l-2.468-.49c.17-.566.378-1.116.605-1.655l2.302.954zM18.125 5.71c-.436.057-.863.136-1.286.23l-.487-2.451a16.49 16.49 0 011.773-.306V5.71zM3.185 18.125c.066-.602.176-1.191.305-1.773l2.452.487c-.095.422-.174.85-.23 1.286H3.183zm29.921 3.069a13.14 13.14 0 01-11.912 11.912l-.569.051v5.014l.669-.048c8.961-.633 16.196-7.868 16.83-16.83l.047-.668h-5.014l-.05.569zm3.71.681c-.867 7.811-7.13 14.074-14.941 14.94V34.29a14.39 14.39 0 0012.414-12.414h2.527zm-29.922-.681l-.051-.569H1.829l.048.669c.378 5.35 3.11 10.082 7.156 13.165l-2.417 2.416H4.26a1.872 1.872 0 00-1.76-1.25A1.877 1.877 0 00.625 37.5c0 1.034.841 1.875 1.875 1.875.814 0 1.501-.524 1.76-1.25h2.874l2.935-2.935a18 18 0 008.637 2.933l.669.048v-5.014l-.569-.05A13.14 13.14 0 016.894 21.193zM2.5 38.125a.626.626 0 010-1.25.626.626 0 010 1.25zm15.625-1.31c-7.811-.866-14.074-7.129-14.94-14.94H5.71a14.39 14.39 0 0012.414 12.414v2.527zM35.74 3.125c.259.726.946 1.25 1.76 1.25A1.877 1.877 0 0039.375 2.5 1.877 1.877 0 0037.5.625c-.814 0-1.501.524-1.76 1.25h-2.874L29.931 4.81a18 18 0 00-8.637-2.933l-.669-.048v5.014l.569.05a13.14 13.14 0 0111.912 11.913l.051.569h5.014l-.048-.669c-.378-5.35-3.11-10.082-7.156-13.165l2.417-2.416h2.356zm1.76-1.25a.626.626 0 010 1.25.626.626 0 010-1.25zm-.684 16.25h-2.527A14.39 14.39 0 0021.875 5.711V3.184c7.811.867 14.074 7.13 14.94 14.941z" fill="#BE8D55"/></svg>