<svg width="60" height="60" fill="none" xmlns="http://www.w3.org/2000/svg"><path d="M54.739 8.771H33.28a.879.879 0 000 1.758h21.458a.879.879 0 100-1.758zm0 4.365H33.28a.879.879 0 000 1.758h21.458a.879.879 0 100-1.758zM43.21 17.501h-9.93a.879.879 0 000 1.758h9.929a.879.879 0 000-1.758zM27.404 40.612H5.947a.879.879 0 000 1.758h21.457a.879.879 0 000-1.758zm0 4.365H5.947a.879.879 0 000 1.758h21.457a.879.879 0 000-1.758zm0 4.365h-9.928a.879.879 0 000 1.758h9.928a.879.879 0 000-1.758zM2.585 31.876h17.858a2.542 2.542 0 002.543-2.546c-.005-3.394-.01-5.215 0-5.623.046-1.889-1.006-3.538-2.745-4.303-1.35-.594-3.743-.963-5.094-1.135l-.006-1.49a6.42 6.42 0 002.725-4.739c.572-.436 1.157-1.303 1.157-2.791V5.6a5.607 5.607 0 00-5.6-5.601H9.514a5.607 5.607 0 00-5.6 5.6V9.25c0 1.488.584 2.355 1.156 2.791a6.42 6.42 0 002.694 4.715L7.77 18.3c-1.35.183-3.74.573-5.084 1.178-1.657.747-2.694 2.43-2.645 4.292v.614a.879.879 0 001.758 0v-.626a.91.91 0 000-.025c-.034-1.156.598-2.197 1.609-2.652.786-.354 2.302-.708 4.2-.983a5.38 5.38 0 007.715-.033c1.901.26 3.42.6 4.209.948 1.09.48 1.724 1.47 1.696 2.651-.011.463-.006 2.36 0 5.668a.786.786 0 01-.786.787H2.585a.786.786 0 01-.785-.786v-.84a.879.879 0 00-1.758 0v.84a2.546 2.546 0 002.543 2.543zM5.672 5.601a3.847 3.847 0 013.843-3.843h3.907A3.847 3.847 0 0117.265 5.6v2.77h-.552c-.12-.082-.309-.413-.309-.649V6.544a2.002 2.002 0 00-2.818-1.824c-1.577.708-2.633.719-4.235 0a2.002 2.002 0 00-2.818 1.824v1.177c0 .236-.19.567-.31.649h-.551V5.6zm3.614 13.634c.156-.258.245-.558.243-.876l-.003-.726a6.392 6.392 0 003.86.008l.004.702c0 .318.093.617.251.873a3.62 3.62 0 01-4.355.018zm2.183-3.057a4.665 4.665 0 01-4.66-4.66c0-.42-.208-.76-.614-.841-.063-.034-.262-.168-.396-.55h.469c1.235 0 2.023-1.425 2.023-2.406V6.544a.242.242 0 01.34-.22c1.96.88 3.54.958 5.675 0a.242.242 0 01.34.22v1.177c0 .981.788 2.406 2.023 2.406h.469c-.134.382-.333.516-.396.55-.406.081-.613.42-.613.84 0 2.57-2.09 4.66-4.66 4.66zM59.986 51.83c.045-1.888-1.006-3.537-2.745-4.302-1.35-.594-3.743-.963-5.094-1.135l-.006-1.491a6.42 6.42 0 002.724-4.738c.573-.437 1.158-1.303 1.158-2.792v-3.648c0-3.088-2.513-5.6-5.601-5.6h-3.907a5.607 5.607 0 00-5.601 5.6v3.648c0 1.489.585 2.355 1.157 2.792a6.42 6.42 0 002.693 4.715l.007 1.545c-1.35.183-3.74.572-5.084 1.178-1.657.746-2.694 2.43-2.645 4.292v.499a.879.879 0 001.757 0v-.511a.73.73 0 000-.026c-.034-1.155.598-2.196 1.61-2.652.786-.354 2.301-.707 4.2-.983a5.379 5.379 0 007.713-.032c1.902.26 3.421.6 4.21.947 1.09.48 1.725 1.471 1.696 2.652-.012.49-.004 2.4 0 5.667 0 .434-.35.787-.786.787H39.585a.786.786 0 01-.785-.785V56.5a.879.879 0 00-1.758 0v.956A2.546 2.546 0 0039.585 60h17.858a2.542 2.542 0 002.543-2.547c-.004-3.021-.012-5.156 0-5.623zM42.672 33.724a3.847 3.847 0 013.843-3.843h3.907a3.847 3.847 0 013.843 3.843v2.77h-.552c-.12-.082-.31-.414-.31-.65v-1.176a2.002 2.002 0 00-2.817-1.824c-1.6.717-2.655.709-4.235 0a2.002 2.002 0 00-2.818 1.824v1.177c0 .235-.19.567-.31.648h-.551v-2.769zm3.614 13.634c.155-.257.244-.557.243-.876l-.003-.725a6.392 6.392 0 003.86.008l.003.701c.002.318.094.617.252.873a3.62 3.62 0 01-4.355.02zm2.182-3.057c-2.57 0-4.66-2.09-4.66-4.66 0-.42-.207-.759-.613-.84-.063-.035-.263-.169-.396-.55h.468c1.236 0 2.024-1.425 2.024-2.406v-1.177a.242.242 0 01.34-.22c1.96.879 3.539.958 5.674 0a.242.242 0 01.34.22v1.177c.001.98.79 2.406 2.024 2.406h.469c-.134.381-.333.515-.396.55-.406.081-.613.42-.613.84 0 2.57-2.091 4.66-4.66 4.66z" fill="#BE8D55"/><path d="M56.894 4.025h-26.31a3.11 3.11 0 00-2.975 2.22h-5.65c-.652 0-1.224.418-1.424 1.039-.2.62.022 1.294.552 1.674l6.266 4.495c.08.057.127.15.127.249v7.2a3.107 3.107 0 003.104 3.104h26.31a3.107 3.107 0 003.103-3.104V7.129a3.107 3.107 0 00-3.103-3.103zm1.346 16.877c0 .742-.604 1.346-1.346 1.346h-26.31a1.347 1.347 0 01-1.346-1.346v-7.2c0-.664-.322-1.29-.86-1.678l-5.605-4.02h5.587a.879.879 0 00.879-.878 1.347 1.347 0 011.345-1.344h26.31c.742 0 1.346.604 1.346 1.346v13.774zM39.465 39.253a1.492 1.492 0 00-1.425-1.038h-5.649a3.11 3.11 0 00-2.975-2.221H3.106a3.107 3.107 0 00-3.104 3.103v13.775a3.107 3.107 0 003.104 3.103h26.31a3.107 3.107 0 003.103-3.103V45.67c0-.098.048-.191.128-.249l6.266-4.495c.53-.38.752-1.053.552-1.674zm-7.843 4.741a2.069 2.069 0 00-.86 1.677v7.2c0 .743-.604 1.346-1.346 1.346H3.106a1.347 1.347 0 01-1.346-1.345V39.097c0-.742.604-1.345 1.346-1.345h26.31c.74 0 1.344.602 1.345 1.343a.88.88 0 00.88.878h5.586l-5.605 4.021z" fill="#BE8D55"/></svg>