<svg width="40" height="40" fill="none" xmlns="http://www.w3.org/2000/svg"><g clip-path="url(#clip0)" fill="#BE8D55"><path d="M30.68 33.443a56.882 56.882 0 01-2.168 1.607.586.586 0 00-.245.537c.002.02.195 2.013 0 3.762a.586.586 0 101.165.13c.16-1.442.08-2.992.03-3.666.64-.456 1.29-.941 1.938-1.445a.586.586 0 10-.72-.925z"/><path d="M39.999 26.16c-.453-7.49-.005-14.5 0-14.57a.585.585 0 00-.585-.624c-2.266 0-3.529.765-4.163 2.546-.927.082-1.69.436-2.27 1.054-1.71 1.817-1.477 5.585-1.273 8.91l.018.296c-.6-.088-1.218.014-1.891.294-1.579.655-3.426 2.276-6.486 4.963a672.28 672.28 0 01-1.971 1.725.586.586 0 00-.199.383c-.016.156-.384 3.874-.045 8.321a.586.586 0 101.168-.089 52.63 52.63 0 01.023-7.886c.639-.556 1.227-1.073 1.797-1.574 5.71-5.012 7.003-6.032 9.082-4.008a142.73 142.73 0 01-4.697 3.992.586.586 0 00.738.91 141.394 141.394 0 005.196-4.436.586.586 0 00.04-.83 9.716 9.716 0 00-.572-.578l1.67-1.525a.586.586 0 00.192-.433c0-4.318 0-7.172.505-8.855.392-1.307 1.077-1.87 2.517-1.986-.098 1.893-.335 7.673.022 13.823-.605.66-2.858 3.057-5.986 5.712a.586.586 0 00.758.894c3.723-3.16 6.24-5.977 6.265-6.005a.585.585 0 00.147-.425zm-5.4-3.417l-1.634 1.491a5.602 5.602 0 00-.038-.023l-.049-.807c-.19-3.087-.405-6.587.956-8.035a2.141 2.141 0 011.1-.623c-.327 1.808-.335 4.394-.335 7.997zm-15.977 8.011a475.03 475.03 0 01-1.971-1.725c-.774-.68-1.505-1.32-2.156-1.88a.586.586 0 00-.763.89c.646.554 1.341 1.164 2.146 1.87.57.502 1.158 1.018 1.797 1.574.074.877.307 4.16.023 7.887a.586.586 0 101.168.089c.34-4.447-.03-8.166-.045-8.322a.586.586 0 00-.199-.383zm-6.435-5.476c-1.582-1.166-2.804-1.67-3.934-1.502l.02-.327c.206-3.316.44-7.074-1.262-8.885-.58-.617-1.339-.97-2.262-1.052-.634-1.78-1.897-2.546-4.163-2.546A.586.586 0 000 11.59c.46 6.99.46 6.99.001 14.57a.586.586 0 00.147.425c.045.05 4.493 5.021 10.39 9.23-.05.673-.13 2.223.03 3.665a.586.586 0 101.165-.13c-.195-1.745-.002-3.742 0-3.762a.587.587 0 00-.245-.537c-5.29-3.724-9.445-8.134-10.302-9.066.433-7.173.442-7.471.027-13.823 1.436.116 2.12.68 2.511 1.986.505 1.683.505 4.536.505 8.855 0 .164.07.321.191.432l1.67 1.525a9.952 9.952 0 00-.57.579.586.586 0 00.039.829 140.19 140.19 0 005.196 4.436.584.584 0 00.824-.086.586.586 0 00-.087-.824 142.65 142.65 0 01-4.695-3.99c.694-.672 1.269-.971 1.861-.985.714-.017 1.588.386 2.834 1.303a.586.586 0 00.695-.943zm-5.083-1.902c-.018.285-.036.568-.052.846l-.019.011-1.632-1.49c0-3.603-.008-6.188-.335-7.997.44.105.8.31 1.091.62 1.355 1.442 1.138 4.931.947 8.01zm6.46-9.522a.586.586 0 10-1.092.425 8.096 8.096 0 002.931 3.723 8.069 8.069 0 004.635 1.452c4.473 0 8.113-3.638 8.113-8.108 0-4.471-3.64-8.108-8.113-8.108-4.474 0-8.114 3.637-8.114 8.108a.586.586 0 001.172 0c0-3.825 3.114-6.936 6.942-6.936 3.827 0 6.94 3.111 6.94 6.936 0 3.824-3.113 6.936-6.94 6.936a6.902 6.902 0 01-3.965-1.242 6.928 6.928 0 01-2.509-3.185z"/><path d="M31.39 11.346a11.26 11.26 0 00-2.145-6.64.586.586 0 10-.95.687 10.095 10.095 0 011.924 5.953c0 5.61-4.567 10.174-10.181 10.174-5.614 0-10.182-4.564-10.182-10.174 0-5.61 4.568-10.174 10.182-10.174a10.2 10.2 0 016.497 2.34.586.586 0 10.748-.901A11.374 11.374 0 0020.038 0C13.778 0 8.684 5.09 8.684 11.346s5.093 11.346 11.354 11.346c6.26 0 11.353-5.09 11.353-11.346z"/><path d="M15.652 12.574a.528.528 0 01-.356-.122.435.435 0 01-.132-.336c0-.115.044-.214.132-.295a.529.529 0 01.356-.122h.642a4.082 4.082 0 01-.02-.408c0-.183.01-.366.03-.55h-.652a.529.529 0 01-.356-.121.422.422 0 01-.132-.326.39.39 0 01.132-.296.504.504 0 01.356-.132h.856c.183-.516.454-.974.814-1.375.36-.4.784-.712 1.273-.936a3.86 3.86 0 011.609-.336c.522 0 .97.068 1.344.203.38.136.76.36 1.14.672a.571.571 0 01.163.194.55.55 0 01.04.224.427.427 0 01-.142.326.551.551 0 01-.326.142.558.558 0 01-.376-.132 2.99 2.99 0 00-.785-.5c-.264-.114-.617-.172-1.058-.172-.564 0-1.076.156-1.538.468-.462.312-.811.72-1.049 1.222H21.1c.142 0 .258.044.346.132.095.082.142.18.142.296a.408.408 0 01-.142.325.49.49 0 01-.346.123h-3.768a3.753 3.753 0 00-.02.957h3.075a.49.49 0 01.346.122c.095.081.143.18.143.295a.42.42 0 01-.143.336.49.49 0 01-.346.122h-2.84c.148.36.355.68.62.957.272.279.58.496.927.652.346.15.716.224 1.11.224.346 0 .672-.058.977-.173.312-.122.61-.289.896-.499a.505.505 0 01.356-.112.433.433 0 01.306.143.47.47 0 01.122.346.517.517 0 01-.163.377 3.87 3.87 0 01-2.494.885 3.85 3.85 0 01-1.65-.356 3.953 3.953 0 01-1.303-.988 3.934 3.934 0 01-.784-1.456h-.815z"/></g><defs><clipPath id="clip0"><path fill="#fff" d="M0 0h40v40H0z"/></clipPath></defs></svg>