<svg width="40" height="40" fill="none" xmlns="http://www.w3.org/2000/svg"><g clip-path="url(#clip0)" fill="#BE8D55"><path d="M35.623 20.621c0-.916-.078-1.83-.236-2.733l-1.3.227a14.513 14.513 0 01-5.968 14.38l-1.063-1.734a1.967 1.967 0 01-.083-1.92l.3-.599a.656.656 0 01.59-.364h.93a1.97 1.97 0 001.838-1.244l.893-2.233c.094-.233.142-.483.141-.735v-1.451a1.314 1.314 0 00-.386-.934l-.792-.791a1.319 1.319 0 00-1.523-.248l-1.624.812a.66.66 0 01-.59 0l-2.638-1.32a.656.656 0 01-.363-.588v-1.823c0-.729-.59-1.32-1.32-1.32a.66.66 0 01-.66-.66v-.659a.66.66 0 01.265-.528l2.11-1.583-.79-1.055-2.112 1.583a1.99 1.99 0 00-.791 1.583v.66a1.98 1.98 0 001.979 1.979v1.823a1.968 1.968 0 001.093 1.77l2.64 1.32a1.988 1.988 0 001.77 0l1.623-.812.792.792v1.451a.653.653 0 01-.047.245l-.894 2.233a.656.656 0 01-.612.415h-.93a1.967 1.967 0 00-1.77 1.094l-.3.6a3.28 3.28 0 00.138 3.198l1.075 1.756a14.462 14.462 0 01-13.268.6l.809-.54a.663.663 0 01.364-.112h1.692a1.965 1.965 0 001.4-.58l1.866-1.866a1.97 1.97 0 00.58-1.4v-3.047a1.98 1.98 0 00-.28-1.015l-1.41-2.357a1.99 1.99 0 00-1.69-.95h-1.852a1.98 1.98 0 00-1.65.881l-.728 1.098h-1.626c-.729 0-1.32.59-1.32 1.32v1.26a.66.66 0 01-.302.553l-2.058 1.328a14.426 14.426 0 01-2.241-8.42h1.147c.25 0 .479.141.59.366l.773 1.548c.223.447.68.728 1.18.725h.696a1.319 1.319 0 001.271-1.682l-.84-2.935h1.302c.45 0 .885-.154 1.236-.434l2.153-1.723a1.983 1.983 0 00.583-2.325l-1.13-2.638a.66.66 0 01.268-.826l1.66-.997a1.988 1.988 0 00.962-1.72l-.011-.966c2.127-.4 4.318-.317 6.41.242l.337-1.272A15.833 15.833 0 1035.623 20.62zM15.817 6.666l.008.672a.658.658 0 01-.32.573l-1.662.997a1.987 1.987 0 00-.8 2.478l1.129 2.638a.66.66 0 01-.194.776l-2.153 1.722a.66.66 0 01-.411.141H10.11a1.32 1.32 0 00-1.271 1.683l.84 2.935h-.696l-.773-1.545a1.968 1.968 0 00-1.77-1.094H5.416a14.549 14.549 0 0110.4-11.976zM8.292 29.461l2.016-1.3c.566-.363.908-.99.907-1.662v-1.26h1.626c.441 0 .853-.22 1.098-.588l.731-1.097a.66.66 0 01.549-.294h1.851a.66.66 0 01.561.313l1.406 2.352a.654.654 0 01.094.338v3.047a.66.66 0 01-.193.467l-1.866 1.866a.658.658 0 01-.467.193h-1.692a1.98 1.98 0 00-1.099.333l-1.407.94a14.629 14.629 0 01-4.115-3.648zm-6.928-8.198l-1.316.092c.031.447.078.899.14 1.343l1.307-.181c-.057-.415-.102-.84-.13-1.254zm2.001-9.76l-1.173-.606c-.205.396-.4.81-.578 1.222l1.211.524c.168-.386.35-.769.54-1.14zM1.71 23.758l-1.292.271c.093.44.198.881.322 1.312l1.27-.358a19.05 19.05 0 01-.3-1.225zm-.017-7.513L.4 15.981a20.9 20.9 0 00-.224 1.332l1.308.175c.055-.416.126-.835.21-1.243zm2.98-6.898l-1.08-.76c-.257.366-.506.746-.738 1.13l1.128.685c.217-.36.45-.714.69-1.055zm-2.307 4.47l-1.244-.438c-.15.425-.286.857-.406 1.289l1.272.352c.11-.402.238-.806.378-1.203zM1.36 18.742l-1.32-.086c-.026.43-.04.866-.04 1.306v.042l1.32-.043c0-.409.013-.815.04-1.22zm1.033 7.441l-1.242.445c.152.424.319.845.498 1.253l1.209-.527a18.72 18.72 0 01-.465-1.17zM6.26 7.387l-.967-.897c-.305.33-.603.672-.885 1.019l1.025.831c.263-.325.541-.645.827-.953zm10.958-5.718L17.033.36c-.442.062-.89.14-1.33.233l.27 1.292c.412-.088.83-.16 1.245-.217zm2.512-.179L19.725.17c-.451 0-.905.019-1.35.05l.095 1.32c.416-.034.836-.05 1.26-.05zm-4.98.697l-.36-1.27c-.43.121-.863.26-1.286.413l.446 1.241c.395-.142.798-.27 1.198-.384zM8.097 5.663l-.835-1.021a19.57 19.57 0 00-1.015.89l.903.961c.304-.286.624-.566.947-.83zm4.284-2.626l-.528-1.209a19.61 19.61 0 00-1.216.584l.61 1.169c.371-.195.753-.376 1.134-.544zM10.15 4.202l-.69-1.124a19.73 19.73 0 00-1.126.744L9.1 4.898c.34-.241.694-.477 1.051-.696zm17.013 32.702l.528 1.209c.41-.179.82-.375 1.217-.581l-.607-1.17a18.77 18.77 0 01-1.138.541zm6.131-4.338l.964.901c.306-.33.605-.67.888-1.018l-1.023-.833a17.85 17.85 0 01-.83.95zm-1.841 1.721l.834 1.023c.347-.284.688-.582 1.016-.888l-.9-.964c-.308.287-.624.564-.95.83zm3.433-3.677l1.077.765c.259-.367.509-.746.742-1.13l-1.127-.686a20 20 0 01-.692 1.051zm-5.489 5.132l.685 1.126c.382-.233.76-.482 1.128-.741l-.763-1.077c-.34.242-.695.475-1.05.692zm-4.604 2.006l.356 1.27c.43-.12.864-.258 1.287-.409l-.444-1.242c-.396.143-.798.269-1.2.38zM38.22 21.222l1.316.089c.03-.447.046-.901.046-1.35h-1.32c0 .424-.014.845-.042 1.261zm-.34 2.496l1.293.264c.09-.438.167-.886.227-1.331l-1.307-.178a18.06 18.06 0 01-.213 1.245zm-.677 2.426l1.243.442c.15-.425.288-.858.408-1.288l-1.271-.355c-.112.4-.24.805-.38 1.201zm-1.006 2.313l1.171.608c.207-.396.402-.808.58-1.22l-1.209-.529c-.167.386-.35.77-.542 1.141zM3.4 28.488l-1.169.611c.208.396.432.792.664 1.174l1.13-.689a17.46 17.46 0 01-.624-1.096zm3.923 6.845c.35.284.712.558 1.076.816l.759-1.08a19.295 19.295 0 01-1.006-.762l-.83 1.026zm4.605 2.796c.41.178.833.344 1.26.495l.44-1.244a19.28 19.28 0 01-1.174-.462l-.526 1.211zm-2.4-1.242a19 19 0 001.179.66l.606-1.173c-.37-.191-.74-.399-1.1-.617l-.685 1.13zM5.344 33.49c.308.33.63.65.955.954l.9-.966a18.8 18.8 0 01-.893-.89l-.962.902zm-.629-2.853l-1.077.763c.26.366.535.726.818 1.074l1.02-.836c-.264-.323-.52-.66-.761-1zm17.611 7.623l.179 1.307c.443-.06.89-.137 1.331-.229l-.268-1.291c-.413.085-.829.157-1.242.214zm-5.206 1.314c.441.06.893.105 1.343.132l.088-1.32a18.26 18.26 0 01-1.253-.125l-.178 1.313zm2.69-1.141v1.32c.453 0 .906-.016 1.35-.047l-.09-1.32c-.416.032-.835.047-1.26.047z"/><path d="M14.476 39.03c.433.12.875.228 1.313.318l.263-1.293a18.77 18.77 0 01-1.224-.295l-.352 1.27zM25.2 5.738l-.379 6.452c-.055.94.294 1.86.96 2.527l1.28 1.278 2.33-6.06 2.354 2.354V15.2c0 .524.208 1.027.58 1.396l1.144 1.145 1.4-2.332.335.335a1.98 1.98 0 102.798-2.798l-.335-.336L40 11.21l-1.144-1.145a1.963 1.963 0 00-1.4-.58h-2.912l-2.35-2.353L38.256 4.8l-1.282-1.28a3.292 3.292 0 00-2.526-.96l-6.452.379L25.875.817a2.028 2.028 0 00-2.8 0 1.98 1.98 0 000 2.799l2.126 2.122zm1.363 7.875a1.985 1.985 0 01-.425-1.346l.31-5.278 1.924 1.924-1.809 4.7zm6.646 1.995a.666.666 0 01-.144-.413v-1.59l.843.842-.699 1.16zm4.247-4.804c.15 0 .295.051.412.144l-1.162.701-.842-.841 1.592-.004zm-2.93-6.927a1.98 1.98 0 011.346.426L31.17 6.11l-1.923-1.923 5.28-.311zM24.009 1.75a.66.66 0 01.932 0L37.07 13.88a.66.66 0 010 .932.675.675 0 01-.933 0L24.009 2.682a.66.66 0 010-.932z"/></g><defs><clipPath id="clip0"><path fill="#fff" d="M0 0h40v40H0z"/></clipPath></defs></svg>