<svg width="60" height="60" fill="none" xmlns="http://www.w3.org/2000/svg"><path d="M26.714 22.625h6.572a2.642 2.642 0 002.64-2.64V18.93c0-3.085-2.714-5.691-5.926-5.691-.945 0-1.897.235-2.753.68a.879.879 0 10.81 1.56A4.239 4.239 0 0130 14.994c2.22 0 4.168 1.839 4.168 3.934v1.057a.883.883 0 01-.882.882h-6.572a.883.883 0 01-.882-.882c.01-.51-.043-1.365.092-1.855a.879.879 0 00-1.712-.398c-.176.658-.134 1.572-.137 2.253a2.642 2.642 0 002.639 2.64zm3.337-10.623a3.516 3.516 0 003.512-3.512 3.516 3.516 0 00-3.512-3.513A3.516 3.516 0 0026.54 8.49a3.517 3.517 0 003.512 3.512zm0-5.268c.968 0 1.755.788 1.755 1.755 0 .968-.787 1.755-1.755 1.755a1.757 1.757 0 01-1.754-1.755c0-.968.787-1.755 1.754-1.755zm20.67 42.33a.879.879 0 00-.548 1.116c.127.372.191.758.191 1.147v1.057a.883.883 0 01-.881.882H42.91a.883.883 0 01-.882-.882v-1.057c0-2.095 1.948-3.934 4.168-3.934.564 0 1.119.116 1.65.344a.879.879 0 00.693-1.616 5.918 5.918 0 00-2.343-.485c-3.212 0-5.925 2.606-5.925 5.691v1.057a2.642 2.642 0 002.64 2.64h6.572a2.642 2.642 0 002.639-2.64v-1.057c0-.582-.096-1.159-.285-1.714a.88.88 0 00-1.116-.549zM46.247 44.4a3.517 3.517 0 003.513-3.513 3.516 3.516 0 00-3.513-3.512 3.517 3.517 0 00-3.512 3.512 3.517 3.517 0 003.512 3.513zm0-5.268c.968 0 1.755.788 1.755 1.755 0 .968-.787 1.755-1.755 1.755a1.757 1.757 0 01-1.754-1.755c0-.968.787-1.755 1.754-1.755z" fill="#BE8D55"/><path d="M48.526 32.596c-.328-5.105-2.396-9.578-6.008-12.99a13.72 13.72 0 001.281-5.805C43.8 6.191 37.61 0 30 0c-7.608 0-13.798 6.191-13.798 13.801 0 2.086.466 4.064 1.297 5.838-3.588 3.407-5.642 7.863-5.97 12.948C4.998 33.675.004 39.364.004 46.199c0 7.61 6.19 13.801 13.8 13.801 4.925 0 9.256-2.596 11.698-6.49 2.813.561 6.079.581 8.926-.11 2.43 3.956 6.795 6.6 11.768 6.6 7.608 0 13.799-6.191 13.799-13.801 0-6.816-4.967-12.493-11.47-13.603zM30 1.758c6.64 0 12.042 5.402 12.042 12.043 0 6.64-5.402 12.043-12.042 12.043-6.639 0-12.04-5.402-12.04-12.043 0-6.64 5.401-12.043 12.04-12.043zM13.804 58.242c-6.64 0-12.041-5.402-12.041-12.043 0-6.64 5.402-12.043 12.041-12.043 6.64 0 12.042 5.402 12.042 12.043 0 6.64-5.402 12.044-12.042 12.044zm14.767-6.116c-.836-.059-1.528-.124-2.195-.239a13.723 13.723 0 001.227-5.688c.017-7.784-6.524-14.092-14.3-13.79.346-4.355 2.087-8.187 5.076-11.174 2.456 3.827 6.748 6.367 11.622 6.367 4.887 0 9.189-2.555 11.64-6.399 3.01 2.992 4.763 6.836 5.11 11.207-7.794-.333-14.371 5.987-14.353 13.79 0 1.987.423 3.879 1.184 5.588a18.26 18.26 0 01-5.01.338zm17.626 6.117c-6.64 0-12.041-5.403-12.041-12.044 0-6.64 5.401-12.043 12.04-12.043 6.64 0 12.042 5.402 12.042 12.043 0 6.64-5.401 12.044-12.041 12.044z" fill="#BE8D55"/><path d="M13.804 45.636c-3.212 0-5.926 2.606-5.926 5.691v1.057a2.642 2.642 0 002.64 2.64h1.258a.879.879 0 100-1.758h-1.258a.883.883 0 01-.882-.882v-1.057c0-2.096 1.948-3.934 4.168-3.934s4.168 1.838 4.168 3.934v1.057a.883.883 0 01-.882.882h-1.206a.879.879 0 100 1.757h1.206a2.642 2.642 0 002.64-2.64v-1.056c0-3.085-2.714-5.691-5.926-5.691zm.051-1.236a3.517 3.517 0 003.512-3.513 3.516 3.516 0 00-3.512-3.512 3.517 3.517 0 00-3.512 3.512 3.516 3.516 0 003.512 3.513zm0-5.268c.968 0 1.755.788 1.755 1.755 0 .968-.787 1.755-1.755 1.755a1.757 1.757 0 01-1.755-1.755c0-.968.787-1.755 1.755-1.755z" fill="#BE8D55"/></svg>