<svg width="40" height="40" fill="none" xmlns="http://www.w3.org/2000/svg"><g clip-path="url(#clip0)" fill="#BE8D55"><path d="M1.847 13.835h1.556v13.447a.586.586 0 101.172 0V13.594l15.327-8.506a.202.202 0 01.198 0l15.327 8.506v3.946a.586.586 0 101.172 0v-3.705h1.556a1.848 1.848 0 001.59-2.78 1.835 1.835 0 00-.695-.68L20.67.176a1.365 1.365 0 00-1.335 0L.952 10.374a1.846 1.846 0 00.895 3.46zM1.521 11.4L19.903 1.2a.2.2 0 01.197 0l18.383 10.2a.674.674 0 01-.328 1.262h-1.99l-15.497-8.6a1.37 1.37 0 00-1.334 0l-15.497 8.6h-1.99a.674.674 0 01-.326-1.263zM38.69 36.131h-.742v-1.426c0-.7-.57-1.27-1.27-1.27h-.08V20.273a.586.586 0 10-1.172 0v13.16H4.574v-3.418a.586.586 0 10-1.172 0v3.418h-.08c-.7 0-1.27.57-1.27 1.27v1.427H1.31A1.31 1.31 0 000 37.441v1.25C0 39.411.588 40 1.31 40h37.38c.722 0 1.31-.588 1.31-1.31v-1.25a1.31 1.31 0 00-1.31-1.309zM3.224 34.705c0-.055.044-.099.099-.099h33.354a.1.1 0 01.099.099v1.426H3.224v-1.426zm35.604 3.986a.138.138 0 01-.138.137H1.31a.138.138 0 01-.138-.138v-1.25c0-.075.062-.137.138-.137h37.38c.076 0 .138.062.138.138v1.25z"/><path d="M27.997 17.509h1.456a1.852 1.852 0 001.753 1.262 1.85 1.85 0 001.849-1.848 1.85 1.85 0 00-1.849-1.849c-.814 0-1.507.53-1.753 1.263h-1.456v-.758c0-.622-.466-1.142-1.084-1.21-3.279-.361-5.368-1.903-6.114-2.549a1.227 1.227 0 00-1.597 0c-.747.646-2.836 2.188-6.115 2.549a1.216 1.216 0 00-1.084 1.21v.758h-1.456a1.851 1.851 0 00-1.753-1.263 1.85 1.85 0 00-1.849 1.849c0 1.02.83 1.848 1.849 1.848.814 0 1.507-.53 1.753-1.262h1.456v3.878h-1.456a1.851 1.851 0 00-1.753-1.262 1.85 1.85 0 00-1.849 1.848c0 1.02.83 1.849 1.849 1.849.814 0 1.507-.53 1.753-1.263h1.456v1.228a5.53 5.53 0 002.843 4.832l4.486 2.492a1.37 1.37 0 001.336 0l4.487-2.492a5.53 5.53 0 002.842-4.832V22.56h1.456a1.852 1.852 0 001.753 1.263 1.85 1.85 0 001.849-1.849 1.85 1.85 0 00-1.849-1.848c-.814 0-1.507.53-1.753 1.262h-1.456V17.51zm3.21-1.263a.678.678 0 11-.002 1.355.678.678 0 01.001-1.355zM8.793 17.6a.678.678 0 11.001-1.356.678.678 0 01-.001 1.355zm0 5.05a.678.678 0 11.001-1.355.678.678 0 01-.001 1.355zm22.412-1.353a.678.678 0 11-.001 1.355.678.678 0 01.001-1.355zm-4.38 2.49a4.36 4.36 0 01-2.24 3.808l-4.487 2.492a.202.202 0 01-.198 0l-4.486-2.493a4.357 4.357 0 01-2.24-3.806v-8.21c0-.022.017-.042.04-.044 3.606-.398 5.924-2.11 6.754-2.827a.047.047 0 01.063 0c.829.717 3.147 2.43 6.753 2.827.023.002.04.021.04.044v8.21z"/><path d="M24.56 16.504a13.81 13.81 0 01-3.917-1.668 1.206 1.206 0 00-1.287 0 13.81 13.81 0 01-3.916 1.668 1.214 1.214 0 00-.912 1.178v6.105c0 1.09.592 2.095 1.544 2.624l3.261 1.813c.418.23.917.23 1.335-.001l3.26-1.812a3.003 3.003 0 001.544-2.624v-2.146a.586.586 0 10-1.172 0v2.146a1.83 1.83 0 01-.941 1.6l-3.259 1.81a.206.206 0 01-.2.001l-3.26-1.811a1.83 1.83 0 01-.94-1.6v-6.105c0-.02.013-.038.03-.043a14.956 14.956 0 004.247-1.81.041.041 0 01.045 0 14.979 14.979 0 004.248 1.81c.017.005.03.023.03.043v1.225a.586.586 0 101.172 0v-1.225c0-.556-.375-1.04-.912-1.178z"/></g><defs><clipPath id="clip0"><path fill="#fff" d="M0 0h40v40H0z"/></clipPath></defs></svg>