<svg width="40" height="40" fill="none" xmlns="http://www.w3.org/2000/svg"><path d="M19.667 16a4.333 4.333 0 100 8.666 4.333 4.333 0 000-8.666zm0 7.719a3.386 3.386 0 110-6.771 3.386 3.386 0 010 6.771zm-1.181-9.052a.391.391 0 00.08-.009 4.65 4.65 0 01.948-.098.444.444 0 00.344-.18.703.703 0 00.142-.433.703.703 0 00-.142-.434.442.442 0 00-.345-.18c-.37 0-.74.039-1.105.115a.48.48 0 00-.305.227.73.73 0 00-.101.428c.01.154.065.297.155.401.09.105.207.163.33.163z" fill="#BE8D55"/><path d="M17.67 14.932a.522.522 0 00.293-.27.432.432 0 00-.012-.374.533.533 0 00-.31-.256.631.631 0 00-.426.01c-1.354.531-2.503 1.393-3.31 2.481-.807 1.09-1.237 2.359-1.238 3.656 0 .13.058.254.163.345a.6.6 0 00.394.143.6.6 0 00.394-.143.459.459 0 00.163-.345c.001-1.11.369-2.195 1.059-3.126.69-.93 1.673-1.667 2.83-2.12z" fill="#BE8D55"/><path d="M34.496 7.416A19.667 19.667 0 104.837 33.25 19.667 19.667 0 0034.496 7.416zm-14.83-5.76A18.682 18.682 0 0133.55 7.84l-.866 2.251a16.561 16.561 0 00-26.032 0L5.784 7.84a18.678 18.678 0 0113.883-6.185zM34.75 16.431l-8.217-1.655a8.833 8.833 0 00-13.734 0l-8.215 1.655a15.424 15.424 0 012.33-5.044 15.578 15.578 0 0125.505 0 15.426 15.426 0 012.33 5.044zm3.595 3.901A18.68 18.68 0 115.055 8.698l.901 2.341a16.393 16.393 0 00-2.51 5.93.494.494 0 00.58.583l7.971-1.605a8.842 8.842 0 000 8.774l-7.97-1.607a.495.495 0 00-.581.585 16.579 16.579 0 0013.149 12.913.493.493 0 00.585-.486V28.81a8.842 8.842 0 004.973 0v7.315a.493.493 0 00.585.486 16.579 16.579 0 0013.15-12.913.494.494 0 00-.582-.584l-7.97 1.606a8.744 8.744 0 001.165-4.388 8.92 8.92 0 00-.123-1.48.493.493 0 10-.975.165c.073.435.11.875.11 1.315a7.768 7.768 0 01-1.643 4.805 7.842 7.842 0 01-12.406 0 7.847 7.847 0 1113.207-8.345.494.494 0 00.88-.446 8.602 8.602 0 00-.216-.4l7.971 1.605a.494.494 0 00.582-.584 16.395 16.395 0 00-2.51-5.93l.9-2.34a18.67 18.67 0 014.067 11.635zM12.801 25.89a8.834 8.834 0 003.391 2.566v7.062A15.6 15.6 0 014.584 24.235L12.8 25.89zm10.34 9.628v-7.062a8.841 8.841 0 003.392-2.567l8.217-1.655a15.6 15.6 0 01-11.61 11.285z" fill="#BE8D55"/></svg>