<svg width="40" height="40" fill="none" xmlns="http://www.w3.org/2000/svg"><path d="M12.244 16.134a1.29 1.29 0 001.29-1.29v-1.288a1.29 1.29 0 00-1.29-1.29H4.511a1.29 1.29 0 00-1.289 1.29v1.289a1.29 1.29 0 001.29 1.289h7.732zm-7.733-2.578h7.733v1.289H4.511v-1.29zM5.8 17.422a1.933 1.933 0 100 3.867 1.933 1.933 0 000-3.867zM5.8 20a.644.644 0 110-1.289.644.644 0 010 1.29zm0 1.933a1.933 1.933 0 100 3.867 1.933 1.933 0 000-3.867zm0 2.578a.644.644 0 110-1.289.644.644 0 010 1.29zm0 1.934a1.933 1.933 0 100 3.866 1.933 1.933 0 000-3.866zm0 2.577a.644.644 0 110-1.289.644.644 0 010 1.29zm5.156-11.6a1.933 1.933 0 100 3.867 1.933 1.933 0 000-3.867zm0 2.578a.644.644 0 110-1.289.644.644 0 010 1.29zm0 1.933a1.933 1.933 0 100 3.867 1.933 1.933 0 000-3.867zm0 2.578a.644.644 0 110-1.289.644.644 0 010 1.29zm0 1.934a1.933 1.933 0 100 3.866 1.933 1.933 0 000-3.866zm0 2.577a.644.644 0 110-1.289.644.644 0 010 1.29zm19.977-2.577a.644.644 0 101.29 0c0-1.594-1.397-2.917-3.223-3.174v-.693a.644.644 0 10-1.289 0v.693c-1.826.257-3.222 1.58-3.222 3.174 0 1.593 1.396 2.916 3.222 3.173v3.846c-1.108-.215-1.933-.966-1.933-1.864a.644.644 0 10-1.29 0c0 1.593 1.397 2.917 3.223 3.174v.693a.644.644 0 001.289 0v-.693c1.826-.258 3.222-1.58 3.222-3.174 0-1.593-1.396-2.917-3.222-3.174V24.58c1.108.216 1.933.966 1.933 1.865zm-5.155 0c0-.899.825-1.649 1.933-1.865v3.729c-1.108-.216-1.933-.966-1.933-1.864zm5.155 5.155c0 .898-.825 1.648-1.933 1.864v-3.728c1.108.215 1.933.966 1.933 1.864z" fill="#BE8D55"/><path d="M24.447 19.47V14.2l8.708 3.882a3.883 3.883 0 005.124-1.95 3.862 3.862 0 00-1.957-5.11L24.447 5.728v-.55a3.23 3.23 0 013.232-3.222.645.645 0 100-1.29H12.218a4.523 4.523 0 00-4.525 4.512v4.511h-5.17c-1.072 0-1.94.866-1.94 1.933v19.334c0 1.067.868 1.933 1.94 1.933h5.17v1.289H1.294a1.289 1.289 0 00-.992.457 1.28 1.28 0 00-.282 1.053 4.529 4.529 0 004.442 3.645h15.46a4.517 4.517 0 003.248-1.385 10.358 10.358 0 0012.767-1.951 10.28 10.28 0 00.888-12.848 10.353 10.353 0 00-12.378-3.679zm-5.13-10.003l1.34-2.973 1.417-.016-1.817 4.049-.94-1.06zm-2.62-2.965h2.54l-.858 1.905-1.682-1.905zm5.386 3.116c3.851 1.717 3.61 1.634 3.804 1.634a.644.644 0 00.264-1.233l-3.54-1.58.792-1.765 8.85 3.946-.791 1.765-2.95-1.316a.648.648 0 00-.907.655.644.644 0 00.379.522l2.95 1.315-.792 1.766-8.85-3.947.79-1.762zm12.53 2.057l-2.11 4.705-1.18-.526 2.11-4.705 1.18.526zm2.543 1.955a2.58 2.58 0 01-.643 2.79 2.598 2.598 0 01-2.83.487l2.11-4.705a2.581 2.581 0 011.363 1.425v.003zM1.876 30.956V11.622c0-.356.29-.644.646-.644h11.635c.357 0 .646.288.646.644v19.334a.645.645 0 01-.646.644H2.522a.645.645 0 01-.646-.644zm-.582 4.515H15.45a4.485 4.485 0 001.316 2.574H4.462a3.221 3.221 0 01-3.166-2.574h-.002zm15.434-.18a1.287 1.287 0 00-1.278-1.113H8.986v-1.289h5.171c1.071 0 1.94-.866 1.94-1.933V11.622a1.936 1.936 0 00-1.94-1.933h-5.17V5.178a3.23 3.23 0 013.231-3.222h12.294a4.492 4.492 0 00-1.357 3.236.74.74 0 00-.075-.014l-.011.013h-7.8a.662.662 0 00-.486 1.088c5.985 6.766 5.149 5.838 5.393 6.012l2.979 1.332v6.483a10.28 10.28 0 00-5.149 8.266 10.271 10.271 0 004.067 8.844 3.233 3.233 0 01-3.248.63 3.219 3.219 0 01-2.095-2.554h-.002zm11.598 2.754a9.05 9.05 0 01-8.36-5.57 9.003 9.003 0 011.96-9.832 9.07 9.07 0 019.863-1.956 9.022 9.022 0 015.586 8.335c-.005 4.98-4.054 9.017-9.05 9.023z" fill="#BE8D55"/><path d="M22.835 24.603c-.35-.188-.8-.078-1.004.245-1.46 2.333-1.606 5.175-.39 7.624a.73.73 0 00.601.413.759.759 0 00.68-.289.635.635 0 00.052-.69c-1.015-2.049-.893-4.424.326-6.375.204-.324.085-.74-.265-.928zm11.042 0c-.351.189-.47.604-.266.928a6.491 6.491 0 01.326 6.374.634.634 0 00.052.691.759.759 0 00.68.29.73.73 0 00.601-.414c1.216-2.45 1.07-5.291-.39-7.624-.204-.323-.653-.433-1.004-.245z" fill="#BE8D55"/></svg>