<svg width="40" height="40" fill="none" xmlns="http://www.w3.org/2000/svg"><g clip-path="url(#clip0)" fill="#BE8D55"><path d="M38.877 6.518c0-1.51-.258-2.993-.766-4.406a.982.982 0 00-1.217-.601c-.701.229-1.584-.184-2.518-.622C33.486.472 32.477 0 31.416 0c-1.063 0-2.072.472-2.962.89-.934.436-1.816.85-2.518.62a.982.982 0 00-1.217.602 12.983 12.983 0 00-.747 5.062 16.2 16.2 0 00-6.125-1.197c-8.982 0-16.29 7.307-16.29 16.289a16.2 16.2 0 001.081 5.83L1.46 29.275a1.15 1.15 0 000 1.625l8.763 8.763c.217.218.506.337.813.337.307 0 .595-.12.813-.337l1.688-1.688a16.24 16.24 0 004.31.58c1.492 0 2.937-.203 4.31-.58l1.69 1.688c.216.217.505.337.812.337.307 0 .596-.12.813-.337l3.356-3.356a.586.586 0 10-.829-.828l-3.34 3.34-3.056-3.056 8.731-8.732 3.056 3.056-3.458 3.458a.586.586 0 10.83.829l3.473-3.474c.217-.217.337-.506.337-.813 0-.307-.12-.595-.337-.812l-1.18-1.18a16.2 16.2 0 001.081-5.83 16.21 16.21 0 00-1.003-5.626c3.717-2.369 5.745-5.916 5.745-10.121zm-27.842 32.3l-8.731-8.73 3.056-3.056 8.731 8.73-3.056 3.057zm6.038-22.82h1.157l1.091 1.091c.215.215.33.5.323.803a1.095 1.095 0 01-.359.79c-.428.391-1.127.359-1.559-.073l-3.873-3.873a1.103 1.103 0 010-1.558 1.09 1.09 0 01.57-.3c-.001.027-.004.054-.004.082v.383a2.657 2.657 0 002.654 2.654zm-1.482-2.655v-.383c0-.186.152-.337.337-.337h3.013a1.1 1.1 0 01.944.533l-1.67 1.67h-1.142a1.484 1.484 0 01-1.482-1.483zm1.786 6.575c.21.21.325.49.323.787a1.093 1.093 0 01-.335.782 1.106 1.106 0 01-1.546-.012l-4.352-4.353a1.094 1.094 0 01-.323-.778c0-.295.114-.571.323-.78.208-.207.484-.322.778-.322.295 0 .571.115.78.323l4.352 4.353zm-3.165 1.607c.21.21.325.49.322.787a1.094 1.094 0 01-.335.783c-.43.416-1.122.41-1.545-.012L9.81 20.239l-.73-.73a1.094 1.094 0 01-.323-.779 1.098 1.098 0 011.103-1.1c.281 0 .563.107.778.322l3.574 3.574zm-5.23-.458l1.903 1.904c.21.21.325.49.322.788a1.093 1.093 0 01-.334.782c-.43.416-1.123.41-1.546-.012l-1.903-1.903a1.103 1.103 0 01.779-1.88 1.1 1.1 0 01.778.321zm1.124 4.952a2.266 2.266 0 002.21-1.736 2.286 2.286 0 002.699-.347c.332-.322.554-.728.644-1.171a2.292 2.292 0 002.521-.436c.441-.427.687-1 .692-1.615a2.283 2.283 0 00-.074-.594 2.256 2.256 0 002.018-2.202 2.254 2.254 0 00-.666-1.657l-.856-.857 1.87-1.87c.43-.43 1.128-.43 1.558 0a1.103 1.103 0 010 1.558.586.586 0 10.829.828 1.103 1.103 0 011.559 1.557l-.002.001a.586.586 0 00.829.829c.208-.209.485-.323.779-.323a1.103 1.103 0 01.779 1.88.586.586 0 00.828.829 1.1 1.1 0 011.585.027c.4.429.374 1.13-.058 1.562l-4.204 4.204a.586.586 0 10.828.829l1.026-1.026.959.96-6.218 6.218-3.363-3.363a4.084 4.084 0 011.502-.229l1.115.041a5.25 5.25 0 002.805-.69.586.586 0 10-.58-1.018c-.665.38-1.42.566-2.182.537l-1.115-.041a5.278 5.278 0 00-3.917 1.538l-3.139 3.14-6.025-6.026 1.634-1.635c.348.199.74.298 1.13.298zm7.74 11.364c-1.148 0-2.266-.132-3.342-.376l.432-.432a1.146 1.146 0 000-1.625l-.74-.74 3.139-3.14c.143-.143.297-.274.459-.393l3.618 3.618-.654.655a1.15 1.15 0 000 1.625l.432.432a15.086 15.086 0 01-3.343.376zm15.118-15.117c0 1.72-.29 3.375-.822 4.917l-.996-.996a1.142 1.142 0 00-.813-.337c-.307 0-.595.12-.812.337l-.233.233-.96-.96 2.35-2.35c.875-.874.913-2.305.086-3.19a2.256 2.256 0 00-1.778-.719 2.269 2.269 0 00-2.387-2.386 2.268 2.268 0 00-2.386-2.385 2.268 2.268 0 00-.662-1.725 2.277 2.277 0 00-2.786-.336 2.273 2.273 0 00-1.823-.918h-3.013a1.5 1.5 0 00-.869.277 2.27 2.27 0 00-2.697 2.345 2.258 2.258 0 00-1.725.663 2.258 2.258 0 00-.663 1.725 2.268 2.268 0 00-2.39 2.27c0 .309.063.609.18.886a2.261 2.261 0 00-1.17.622 2.276 2.276 0 000 3.215l1.496 1.496-1.578 1.578-.34-.341a1.142 1.142 0 00-.813-.337c-.307 0-.596.12-.813.337l-.996.996a15.052 15.052 0 01-.821-4.917c0-8.336 6.781-15.118 15.117-15.118 2.234 0 4.357.49 6.267 1.364.615 3.763 2.993 6.864 6.854 8.857a.975.975 0 00.895 0c.081-.042.16-.085.241-.129.556 1.573.86 3.265.86 5.026zm-1.549-5.985c-1.939-1.017-3.464-2.328-4.535-3.899-1.165-1.707-1.755-3.68-1.755-5.864 0-1.315.214-2.605.637-3.84 1.078.26 2.15-.241 3.19-.728.817-.382 1.662-.778 2.463-.778.801 0 1.647.396 2.464.778 1.039.487 2.11.989 3.19.729a11.83 11.83 0 01.636 3.839c0 2.184-.59 4.157-1.754 5.864-1.071 1.57-2.597 2.882-4.536 3.899z"/><path d="M35.459 7.278a.586.586 0 00.384-.734 4.619 4.619 0 00-4.428-3.252 4.644 4.644 0 00-4.639 4.639 4.644 4.644 0 004.64 4.639 4.621 4.621 0 004.298-2.897.586.586 0 00-1.086-.44 3.454 3.454 0 01-3.213 2.165 3.47 3.47 0 01-3.467-3.467 3.471 3.471 0 013.467-3.467c1.525 0 2.854.976 3.31 2.43.096.309.425.48.734.384z"/><path d="M32.95 6.506l-1.809 1.81-1.261-1.262a.586.586 0 10-.829.829l1.676 1.675a.584.584 0 00.828 0l2.224-2.223a.586.586 0 10-.829-.829z"/></g><defs><clipPath id="clip0"><path fill="#fff" d="M0 0h40v40H0z"/></clipPath></defs></svg>