<svg width="40" height="40" fill="none" xmlns="http://www.w3.org/2000/svg"><g clip-path="url(#clip0)" fill="#BE8D55"><path d="M37.175 35.285a.729.729 0 00-1.025-.117 2.137 2.137 0 01-2.672.002l-.01-.008a3.589 3.589 0 00-4.487.004 2.136 2.136 0 01-2.671.003l-.004-.003a3.589 3.589 0 00-4.486-.004l-.014.011a2.138 2.138 0 01-2.669 0l-.015-.011a3.59 3.59 0 00-4.489.006 2.137 2.137 0 01-2.672.002l-.014-.01a3.59 3.59 0 00-4.482 0l-.014.01a2.136 2.136 0 01-2.669 0l-.006-.004a3.589 3.589 0 00-4.487-.004l-.014.011a.729.729 0 00.908 1.142l.013-.011a2.136 2.136 0 012.669 0l.006.005a3.588 3.588 0 004.487.003l.014-.01a2.138 2.138 0 012.67 0l.013.01a3.59 3.59 0 004.49-.006 2.137 2.137 0 012.671-.002l.015.011a3.594 3.594 0 004.481 0l.014-.011a2.137 2.137 0 012.669 0l.003.002a3.587 3.587 0 004.491 0 2.137 2.137 0 012.673-.002l.01.009a3.588 3.588 0 004.486-.004.729.729 0 00.117-1.024zM8.722 26.96a.73.73 0 00-1.244.515c0 .192.078.38.213.516a.735.735 0 00.516.213c.192 0 .38-.078.515-.213a.735.735 0 00.214-.516.735.735 0 00-.214-.515zm-3.58 5.639l-.01-.008a12.035 12.035 0 01-3.323-4.387H4.85a.729.729 0 000-1.458H.74a.73.73 0 00-.69.966 13.492 13.492 0 004.15 6l.01.009a.725.725 0 001.027-.096.729.729 0 00-.095-1.026zm32.056-5.547a.729.729 0 00-.594-.306H19.401V3.42a.729.729 0 00-1.458 0v23.326H11.2a.729.729 0 100 1.458h24.335a12.037 12.037 0 01-3.323 4.387l-.01.008a.73.73 0 00.931 1.122l.01-.008a13.493 13.493 0 004.15-6 .728.728 0 00-.095-.661z"/><path d="M22.103 12.772a.735.735 0 00-.515-.213.735.735 0 00-.515.213.735.735 0 00-.214.516c0 .191.078.38.214.515a.734.734 0 00.515.214.73.73 0 00.515-.214.735.735 0 00.214-.515.735.735 0 00-.214-.516z"/><path d="M30.62 12.618a25.955 25.955 0 00-7.732-9.146l-.868-.639a.73.73 0 00-1.16.587v6.74a.73.73 0 001.457 0V4.865a24.474 24.474 0 019.611 18.673h-9.611v-7.695a.729.729 0 00-1.458 0v8.424a.73.73 0 00.73.729h11.079a.73.73 0 00.729-.73c0-4.026-.96-8.055-2.776-11.65zM15.933 6.396a.729.729 0 00-.82.365L6 23.926a.73.73 0 00.644 1.07h9.111a.73.73 0 00.73-.728V7.103a.729.729 0 00-.553-.707zm-.905 17.143H7.856l7.17-13.508v13.508z"/></g><defs><clipPath id="clip0"><path fill="#fff" d="M0 0h40v40H0z"/></clipPath></defs></svg>