<svg width="30" height="30" fill="none" xmlns="http://www.w3.org/2000/svg"><path d="M17.052 13.238l-.415 2.35h3.525l.414-2.35h-3.524zm-5.286 0l-.415 2.35h3.524l.415-2.35h-3.524zm4.561 4.112l-.414 2.349h3.524l.414-2.35h-3.524zm-5.287 0l-.413 2.349h3.524l.414-2.35H11.04zm-5.286 0l-.414 2.349h3.524l.414-2.35H5.754zm4.562 4.11L9.9 23.81h3.524l.415-2.35h-3.524zm-5.286 0l-.415 2.35H8.14l.415-2.35H5.029z" fill="#BE8D55"/><path d="M25.754 3.84h-4.295V2.078h-1.762V3.84H9.418V2.078H7.656V3.84h-3.41L0 27.922h30L25.754 3.84zM5.724 5.602h1.932v1.762h1.762V5.602h10.279v1.762h1.762V5.602h2.505l-.621 3.524H5.103l.622-3.524zM2.1 26.16l2.693-15.271h18.24l-2.693 15.27H2.1zM25.015 9.795L27.9 26.16h-5.77l2.886-16.365z" fill="#BE8D55"/></svg>