<svg width="30" height="30" fill="none" xmlns="http://www.w3.org/2000/svg"><path d="M17.813 5.625a.937.937 0 00-.938-.938H7.5a.937.937 0 00-.938.938v7.5c0 .518.42.938.938.938h9.375c.518 0 .938-.42.938-.938v-7.5zm-1.875 6.563h-7.5V6.561h7.5v5.625z" fill="#000"/><path d="M28.567 6.648l-3.74-1.875a.93.93 0 00-1.252.419.939.939 0 00.423 1.258l1.424.711c-.038.102-.088.21-.088.325 0 1.22.916 2.252 1.854 2.64v11.423a.939.939 0 01-1.875 0v-7.5c0-2.264-1.875-4.157-3.75-4.593v-5.72C21.563 1.67 19.925 0 17.857 0H6.607C4.54 0 2.812 1.669 2.812 3.736V24.72l-1.356.679a.937.937 0 00-.518.838v2.813c0 .518.464.951.982.951h20.625c.517 0 .892-.433.892-.951v-2.813c0-.355-.2-.68-.518-.838l-1.357-.679V11.41c.938.388 1.875 1.42 1.875 2.64v7.5a2.816 2.816 0 002.813 2.812 2.816 2.816 0 002.813-2.812V7.486a.917.917 0 00-.496-.838zm-7.005 21.477H2.813v-1.31l1.357-.678a.937.937 0 00.519-.838V3.736c0-1.034.885-1.861 1.92-1.861h11.25c1.033 0 1.83.827 1.83 1.861V25.3c0 .355.2.68.518.838l1.357.679v1.309z" fill="#000"/></svg>