<svg width="30" height="30" fill="none" xmlns="http://www.w3.org/2000/svg"><g clip-path="url(#clip0)" fill="#000"><path d="M17.782 2.886c-.851-.993-1.618-1.873-2.214-2.612-.028-.056-.085-.085-.114-.113a.725.725 0 00-1.022.113c-.596.739-1.362 1.619-2.214 2.612C8.47 7.23 3.275 13.25 3.275 18.275c0 3.236 1.306 6.16 3.435 8.29C8.84 28.665 11.764 30 15 30c3.237 0 6.161-1.306 8.29-3.435a11.672 11.672 0 003.436-8.29c0-5.026-5.196-11.045-8.944-15.389zm4.486 22.628c-1.873 1.874-4.429 3.038-7.268 3.038-2.839 0-5.394-1.164-7.268-3.01a10.28 10.28 0 01-3.01-7.268c0-4.485 4.997-10.277 8.603-14.45.596-.71 1.164-1.363 1.675-1.988a79.427 79.427 0 001.675 1.959c3.606 4.173 8.603 9.937 8.603 14.451 0 2.84-1.164 5.394-3.01 7.268z"/><path d="M15.057 24.833c-1.76 0-3.35-.71-4.486-1.846a6.328 6.328 0 01-1.846-4.485.703.703 0 00-.71-.71.703.703 0 00-.71.71c0 2.157.881 4.088 2.272 5.508a7.767 7.767 0 005.48 2.242c.397 0 .71-.312.71-.71a.703.703 0 00-.71-.71z"/></g><defs><clipPath id="clip0"><path fill="#fff" d="M0 0h30v30H0z"/></clipPath></defs></svg>