<svg width="30" height="30" fill="none" xmlns="http://www.w3.org/2000/svg"><path d="M23.079 14.694c2.664-2.475 2.883-6.714.487-9.467-2.197-2.526-5.874-2.955-8.561-1-2.929-2.135-6.979-1.413-9.046 1.613-1.896 2.777-1.483 6.581.963 8.854C3.883 16.35 1.987 19.612 2 23.162v2.879c0 .53.416.959.929.959h24.143c.512 0 .928-.43.928-.96v-2.878c.014-3.55-1.883-6.813-4.921-8.468zm-4.365-9.763c2.561-.003 4.64 2.14 4.642 4.786.002 1.887-1.068 3.6-2.733 4.374l-.216.096a4.5 4.5 0 01-.706.227c-.047.01-.093.016-.14.026-.27.053-.544.082-.818.085a4.61 4.61 0 01-.371-.02c-.047 0-.093 0-.14-.01a4.578 4.578 0 01-1.518-.463c-.017-.008-.038-.008-.055-.015-.093-.046-.186-.086-.269-.138.008-.01.012-.02.02-.03a6.802 6.802 0 00.994-1.872l.029-.08c.106-.323.188-.653.246-.988l.022-.149a6.97 6.97 0 00.085-1.031 6.972 6.972 0 00-.085-1.03l-.022-.149a6.96 6.96 0 00-.246-.987l-.029-.08a6.801 6.801 0 00-.994-1.873c-.008-.01-.012-.02-.02-.03a4.5 4.5 0 012.324-.649zM6.644 9.73c-.007-2.643 2.06-4.79 4.618-4.798a4.552 4.552 0 013.217 1.332 4.907 4.907 0 01.599.715c.041.06.078.123.116.184.13.206.244.423.341.648.023.054.04.11.061.165.098.248.175.505.23.767.007.03.009.058.015.088.117.595.117 1.21 0 1.805-.006.03-.008.059-.014.088a4.796 4.796 0 01-.23.767c-.021.055-.039.11-.062.165-.097.225-.211.44-.34.647-.039.061-.076.125-.117.184a4.894 4.894 0 01-.599.715 4.63 4.63 0 01-1.282.894 2.626 2.626 0 01-.228.096 4.566 4.566 0 01-.69.221c-.058.013-.118.021-.178.032a4.47 4.47 0 01-.764.08h-.102a4.46 4.46 0 01-.764-.08c-.06-.011-.12-.019-.179-.032a4.56 4.56 0 01-.689-.22l-.228-.097c-1.661-.775-2.73-2.483-2.732-4.366zm12.07 15.352H3.857v-1.919c-.013-3.252 1.97-6.154 4.939-7.23a6.287 6.287 0 004.98 0c.31.116.613.254.905.413.193.102.371.22.557.337.12.078.243.154.36.24.178.13.347.274.514.42.107.097.212.192.313.288a7.505 7.505 0 011.326 1.768c.093.166.178.33.256.503.078.171.147.36.213.543.059.159.121.317.17.48.064.222.11.452.155.683.028.136.064.27.085.407.055.38.083.764.084 1.148v1.919zm7.429 0h-5.571v-1.919c0-.3-.017-.598-.043-.892-.008-.087-.02-.172-.03-.258a9.454 9.454 0 00-.3-1.534l-.058-.207a9.648 9.648 0 00-1.12-2.425l-.035-.054a9.471 9.471 0 00-.512-.711l-.006-.01a8.632 8.632 0 00-.6-.687h.039c.262.035.526.055.79.058h.051a6.35 6.35 0 00.732-.05c.076-.009.151-.023.227-.036.198-.031.393-.072.585-.122a6.194 6.194 0 00.909-.305c2.972 1.075 4.956 3.98 4.942 7.233v1.919z" fill="#000"/></svg>