<svg width="30" height="30" fill="none" xmlns="http://www.w3.org/2000/svg"><g clip-path="url(#clip0)"><path d="M26.485 9.604V4.455c0-.708-.29-1.375-.816-1.878a2.71 2.71 0 00-1.879-.758H6.216A2.64 2.64 0 003.58 4.455v5.148C-.277 22.863 0 21.83.006 22.048v5.254a.88.88 0 00.879.879H29.12a.879.879 0 00.879-.879V22.03c0-.303 0-.006-3.515-12.426zM5.337 4.455a.88.88 0 01.879-.879H23.79c.5 0 .938.411.938.88v4.393h-1.816V7.97a2.64 2.64 0 00-2.637-2.636h-3.514c-.675 0-1.291.255-1.758.673a2.625 2.625 0 00-1.757-.673H9.73A2.64 2.64 0 007.094 7.97v.879H5.337V4.455zM21.154 7.97v1.758a.88.88 0 01-.879.878h-3.514a.88.88 0 01-.88-.878V7.97a.88.88 0 01.88-.879h3.514a.88.88 0 01.88.88zm-7.03 0v1.758a.88.88 0 01-.878.878H9.73a.88.88 0 01-.879-.878V7.97a.88.88 0 01.879-.879h3.515a.88.88 0 01.878.88zm-9.006 2.636h2.128a2.64 2.64 0 002.485 1.758h3.515c.674 0 1.29-.255 1.757-.674a2.625 2.625 0 001.758.674h3.515a2.64 2.64 0 002.485-1.758h2.183l1.479 5.176a4 4 0 01-2.98-.572 5.616 5.616 0 00-6.247 0 3.864 3.864 0 01-4.298 0 5.616 5.616 0 00-6.247 0 3.867 3.867 0 01-3.03.549l1.497-5.153zm-1.987 6.842a5.622 5.622 0 004.495-.776 3.863 3.863 0 014.297 0 5.624 5.624 0 003.124.95 5.625 5.625 0 003.124-.95 3.864 3.864 0 014.297 0c1.28.854 2.925 1.148 4.438.804l1.05 3.675h-25.9l1.075-3.703zm25.111 8.975H1.764v-3.515h26.479v3.515z" fill="#000"/></g><defs><clipPath id="clip0"><path fill="#fff" d="M0 0h30v30H0z"/></clipPath></defs></svg>