<svg width="30" height="30" fill="none" xmlns="http://www.w3.org/2000/svg"><path d="M15 4.695a1.023 1.023 0 00.721-1.742A1.026 1.026 0 0015 2.656a1.03 1.03 0 00-.722.299c-.19.19-.299.453-.299.721a1.026 1.026 0 001.02 1.021zm0 20.508a1.03 1.03 0 00-.722.299c-.19.19-.299.453-.299.72a1.027 1.027 0 001.02 1.022 1.027 1.027 0 001.022-1.021 1.026 1.026 0 00-1.02-1.02zm11.995-10.975a1.028 1.028 0 00-.721-.3 1.026 1.026 0 00-1.02 1.02c0 .27.109.533.298.722.19.19.453.3.722.3a1.022 1.022 0 00.721-1.742zm-23.269-.299a1.03 1.03 0 00-.722.299c-.19.19-.298.453-.298.721 0 .268.109.532.298.721.19.19.453.3.722.3a1.025 1.025 0 001.021-1.02 1.026 1.026 0 00-1.02-1.02z" fill="#000"/><path d="M15 0C6.73 0 .002 6.729.002 15S6.73 30 15 30s14.998-6.729 14.998-15S23.27 0 15 0zm0 27.96C7.855 27.96 2.043 22.145 2.043 15 2.043 7.854 7.855 2.04 15 2.04c7.145 0 12.957 5.814 12.957 12.96 0 7.146-5.812 12.96-12.957 12.96z" fill="#000"/><path d="M15 5.302c-5.344 0-9.692 4.35-9.692 9.698 0 5.348 4.348 9.698 9.692 9.698s9.692-4.35 9.692-9.698c0-5.347-4.348-9.698-9.692-9.698zm0 2.04c3.58 0 6.592 2.474 7.424 5.802a7.186 7.186 0 00-1.041-.387c-1.551-.444-4.016-.561-6.949 1.394-3.814 2.543-6.526.623-7.056.19.336-3.915 3.625-6.998 7.622-6.998zm0 15.316c-3.592 0-6.611-2.49-7.431-5.835a7.276 7.276 0 003.042.662c1.386 0 3.083-.388 4.955-1.636 3.912-2.608 6.564-.619 7.056-.194C22.29 19.572 19 22.657 15 22.657z" fill="#000"/></svg>