<svg width="30" height="30" fill="none" xmlns="http://www.w3.org/2000/svg"><path d="M26.426 18.574v-1.758a2.64 2.64 0 00-2.637-2.636H13.242c-.308 0-.604.053-.879.15V5.123a2.64 2.64 0 001.758-2.485A2.64 2.64 0 0011.484 0h-7.03a.879.879 0 00-.88.879v15.937c0 1.146.735 2.123 1.758 2.486v2.788c0 1.612.636 3.16 1.758 4.305v2.726c0 .486.393.879.879.879h15.82a.879.879 0 000-1.758h-2.637v-1.054a9.672 9.672 0 005.274-8.614zm-13.184-2.637H23.79a.88.88 0 01.879.88v.878H12.363v-.879a.88.88 0 01.88-.878zm-7.91-14.18h6.152a.88.88 0 010 1.759H5.332V1.758zm.879 15.938a.88.88 0 01-.879-.879V5.273h5.273v12.422H6.211zm13.71 8.131a.879.879 0 00-.526.806v1.61H8.848V26.02a.879.879 0 00-.293-.654A4.402 4.402 0 017.09 22.09v-2.643h17.53a7.923 7.923 0 01-4.698 6.38z" fill="#000"/></svg>