<svg width="30" height="30" fill="none" xmlns="http://www.w3.org/2000/svg"><path d="M29.121 15.879h-1.24a9.737 9.737 0 00-6.67-6.722V7.91a6.16 6.16 0 00-6.152-6.152H6.88A2.64 2.64 0 004.395 0H.879A.879.879 0 000 .879V7.91c0 .486.394.88.879.88h3.516A2.64 2.64 0 006.88 7.03h8.179a.88.88 0 01.879.88v1.246a9.737 9.737 0 00-6.67 6.722h-1.24a.879.879 0 000 1.758h.918a9.82 9.82 0 00-.04.879A2.64 2.64 0 0010.664 21v2.788a.879.879 0 001.758 0v-2.637h1.758v.88a.879.879 0 101.758 0v-.88h1.757v2.637a.879.879 0 001.758 0v-2.637h1.758v.88a.88.88 0 001.758 0v-.88h1.758v2.637a.879.879 0 001.757 0V21a2.64 2.64 0 001.758-2.485c0-.297-.014-.59-.04-.88h.92a.879.879 0 000-1.757zM5.273 6.152a.88.88 0 01-.878.88H1.758V1.757h2.637a.88.88 0 01.878.879v3.515zm9.786-.879H7.03V3.516h8.028a4.4 4.4 0 014.394 4.394v.92a9.685 9.685 0 00-1.758 0v-.92a2.64 2.64 0 00-2.636-2.637zm3.515 5.274c3.445 0 6.382 2.23 7.465 5.332h-14.93c1.084-3.102 4.02-5.332 7.465-5.332zm7.031 8.848H11.543a.88.88 0 01-.879-.88c0-.296.017-.59.048-.878h15.724c.032.288.048.582.048.879a.88.88 0 01-.879.879z" fill="#000"/><path d="M15.059 24.668a.879.879 0 00-.88.879v3.574a.879.879 0 001.758 0v-3.574a.879.879 0 00-.878-.879zm-3.516 1.758a.879.879 0 00-.879.879v1.816a.879.879 0 001.758 0v-1.816a.879.879 0 00-.879-.88zm7.031 0a.879.879 0 00-.879.879v1.816a.879.879 0 001.758 0v-1.816a.879.879 0 00-.879-.88zm7.031 0a.879.879 0 00-.878.879v1.816a.879.879 0 001.757 0v-1.816a.879.879 0 00-.879-.88zm-3.515-1.758a.879.879 0 00-.88.879v3.574a.879.879 0 001.759 0v-3.574a.879.879 0 00-.88-.879z" fill="#000"/></svg>