<svg width="30" height="30" fill="none" xmlns="http://www.w3.org/2000/svg"><path d="M18.308 12.98V7.857c0-1.893-.99-3.653-2.786-4.957C13.81 1.657 11.548.973 9.154.973s-4.656.684-6.367 1.926C.99 4.203 0 5.963 0 7.856v14.45a6.728 6.728 0 006.72 6.721H30V12.981H18.308zM3.818 4.323C5.234 3.296 7.129 2.73 9.155 2.73c2.027 0 3.921.565 5.335 1.59 1.33.965 2.061 2.22 2.061 3.535 0 1.314-.732 2.57-2.06 3.534-1.415 1.026-3.31 1.59-5.336 1.59-2.026 0-3.921-.564-5.335-1.59-1.33-.965-2.061-2.22-2.061-3.534 0-1.315.732-2.57 2.06-3.534zm12.732 7.606v1.053h-1.27a8.019 8.019 0 001.27-1.053zM28.242 27.27h-2.949v-5.555h-1.758v5.555h-2.949v-5.555h-1.758v5.555h-2.95v-8.088h-1.757v8.088h-2.95v-5.555H9.415v5.555H6.721c-.086 0-.171-.002-.256-.006v-5.549H4.707v5.127a4.969 4.969 0 01-2.95-4.535V11.928c.307.313.65.609 1.03.884 1.711 1.243 3.973 1.927 6.367 1.927h19.088v12.53z" fill="#000"/><path d="M12.095 5.385c-.797-.578-1.841-.897-2.941-.897-1.1 0-2.145.319-2.941.897-.87.63-1.368 1.53-1.368 2.47 0 .94.499 1.841 1.368 2.471.796.579 1.84.897 2.94.897 1.1 0 2.145-.319 2.942-.897.869-.63 1.367-1.53 1.367-2.47 0-.94-.498-1.84-1.367-2.471zm-2.941 4.08c-1.383 0-2.551-.737-2.551-1.61 0-.872 1.168-1.609 2.55-1.609 1.383 0 2.551.737 2.551 1.61 0 .872-1.168 1.61-2.55 1.61z" fill="#000"/></svg>