<svg width="30" height="30" fill="none" xmlns="http://www.w3.org/2000/svg"><path d="M16.955 23.867V0h-1.758v1.623L5.138 21.148h-1.3v1.758h11.36v.96L8.774 25.19 10.571 30h11.01l1.796-4.81-6.422-1.323zm-1.758-2.719H7.116l8.081-15.687v15.687zm5.164 7.094h-3.406v-1.32h-1.758v1.32h-3.406l-.651-1.745 4.936-1.017 4.937 1.017-.652 1.745z" fill="#000"/><path d="M20.803 15.51a.698.698 0 11.52-1.162l1.31-1.172a2.458 2.458 0 00-1.83-.818 2.458 2.458 0 00-2.455 2.455 2.458 2.458 0 002.455 2.455h5.358V15.51h-5.358zm5.359 3.152h-4.413v1.757h4.413v-1.758z" fill="#000"/></svg>