<svg width="30" height="30" fill="none" xmlns="http://www.w3.org/2000/svg"><g clip-path="url(#clip0)" fill="#000"><path d="M13.261 0H3.886a.937.937 0 00-.937.938v28.124c0 .518.42.937.937.937h9.375c.518 0 .937-.42.937-.937V.938a.937.937 0 00-.937-.937zm-.938 28.125h-7.5v-2.813h4.688v-1.875H4.824v-2.812h2.812V18.75H4.824v-2.812H9.51v-1.875H4.824V11.25h2.812V9.375H4.824V6.563H9.51V4.688H4.824V1.876h7.5v26.248zm13.407-4.407l-3.094 3.085V3.197l3.084 3.085 1.322-1.322L22.354.273a.937.937 0 00-1.321 0L16.345 4.96l1.322 1.322 3.094-3.085v23.606l-3.084-3.085-1.322 1.322 4.687 4.687a.937.937 0 001.322 0l4.687-4.687-1.322-1.322z"/></g><defs><clipPath id="clip0"><path fill="#fff" d="M0 0h30v30H0z"/></clipPath></defs></svg>